<?xml version="1.0" standalone="no"?>
<!DOCTYPE svg PUBLIC "-//W3C//DTD SVG 20010904//EN"
 "http://www.w3.org/TR/2001/REC-SVG-20010904/DTD/svg10.dtd">
<svg version="1.0" xmlns="http://www.w3.org/2000/svg"
 width="1987.000000pt" height="2822.000000pt" viewBox="0 0 1987.000000 2822.000000"
 preserveAspectRatio="xMidYMid meet">

<g transform="translate(0.000000,2822.000000) scale(0.100000,-0.100000)"
fill="#000000" stroke="none">
<path d="M11642 22263 l3 -1158 24 -70 c34 -102 67 -161 119 -218 100 -108
232 -166 422 -187 101 -11 160 -9 310 11 117 16 108 5 94 117 -6 53 -17 142
-24 198 l-12 101 -46 -8 c-162 -27 -269 3 -319 88 l-28 48 -3 633 -3 632 306
0 305 0 0 -519 c0 -286 5 -564 10 -620 24 -228 87 -380 209 -502 127 -127 271
-181 486 -182 258 -1 481 95 663 287 l72 76 0 -165 0 -165 265 0 265 0 0 1075
0 1075 -270 0 -270 0 0 -625 c0 -424 -4 -641 -11 -677 -26 -123 -112 -246
-222 -318 -86 -56 -168 -80 -276 -80 -188 0 -299 72 -353 230 -23 65 -23 70
-26 768 l-3 702 -574 0 -575 0 -2 303 -3 302 -268 3 -267 2 2 -1157z"/>
<path d="M4007 22835 c-436 -77 -741 -385 -838 -847 -28 -131 -30 -349 -6
-485 75 -413 335 -700 742 -818 153 -44 264 -58 460 -58 239 0 419 26 651 94
l71 21 -47 190 c-27 104 -50 191 -52 193 -1 1 -52 -8 -113 -21 -261 -56 -562
-70 -734 -34 -233 48 -408 192 -456 375 -8 32 -15 72 -15 87 l0 28 760 0 760
0 0 153 c0 166 -9 247 -41 377 -76 311 -267 554 -527 672 -165 75 -429 106
-615 73z m354 -425 c118 -40 198 -111 255 -225 32 -64 74 -228 62 -240 -3 -3
-230 -4 -505 -3 l-500 3 14 70 c21 108 81 222 152 288 61 56 139 100 208 116
21 5 87 9 146 10 84 1 121 -4 168 -19z"/>
<path d="M6536 22835 c-204 -43 -367 -133 -504 -280 l-72 -77 0 166 0 166
-260 0 -260 0 0 -1075 0 -1075 264 0 265 0 3 643 c3 642 3 642 26 706 105 291
432 442 683 315 96 -48 160 -148 179 -279 5 -41 10 -340 10 -727 l0 -658 270
0 270 0 0 688 c-1 716 -5 834 -40 979 -48 204 -167 366 -324 443 -45 22 -108
47 -141 56 -85 22 -283 27 -369 9z"/>
<path d="M8275 22844 c-22 -2 -89 -9 -150 -14 -60 -6 -170 -20 -243 -32 l-133
-21 5 -26 c3 -14 13 -100 22 -191 9 -91 20 -169 24 -173 4 -4 65 -1 136 8 190
22 495 37 604 30 181 -13 279 -43 348 -109 67 -63 92 -150 92 -328 l0 -97
-412 -3 c-387 -4 -418 -6 -491 -26 -109 -30 -196 -75 -264 -137 -118 -107
-175 -251 -176 -445 -2 -197 47 -324 174 -451 59 -60 94 -86 160 -117 151 -73
312 -100 489 -82 203 20 343 78 466 193 l74 69 0 -116 0 -116 255 0 256 0 -3
788 c-3 718 -5 792 -21 847 -86 292 -303 464 -667 530 -91 16 -445 29 -545 19z
m701 -1396 c-21 -282 -187 -437 -468 -438 -113 0 -178 14 -235 53 -57 39 -90
93 -99 167 -14 113 28 215 109 260 72 41 133 48 426 49 l274 1 -7 -92z"/>
<path d="M10715 22839 c-279 -38 -525 -158 -701 -340 -200 -209 -294 -454
-294 -766 0 -161 19 -270 72 -410 100 -264 325 -493 594 -600 259 -104 536
-125 844 -62 81 16 217 55 229 65 1 1 -16 90 -39 197 l-43 193 -96 -22 c-456
-109 -806 -3 -950 288 -56 114 -74 202 -73 363 0 154 21 247 79 358 76 145
226 255 403 294 109 24 368 21 520 -5 63 -12 115 -20 116 -19 3 4 84 367 84
376 0 13 -109 48 -226 71 -116 24 -408 34 -519 19z"/>
<path d="M15685 22839 c-334 -37 -548 -173 -626 -399 -19 -55 -23 -86 -23
-195 0 -109 4 -140 23 -194 38 -109 115 -199 237 -277 75 -48 280 -145 459
-219 246 -100 327 -138 368 -169 64 -49 81 -79 81 -139 0 -91 -50 -149 -158
-183 -81 -25 -283 -30 -428 -9 -125 17 -374 76 -482 114 -33 12 -61 19 -64 17
-2 -2 -30 -86 -62 -185 -52 -164 -56 -182 -41 -190 9 -5 71 -28 136 -51 467
-161 891 -179 1210 -51 210 84 357 240 400 423 19 81 19 215 0 296 -52 218
-170 305 -708 521 -408 163 -457 197 -457 316 0 69 22 102 88 133 54 25 67 27
237 30 198 4 336 -10 558 -55 70 -14 129 -24 131 -22 5 6 86 357 86 373 0 8
-30 22 -72 34 -255 74 -637 109 -893 81z"/>
<path d="M16880 20895 c0 -11 12 -15 45 -15 l45 0 0 -110 c0 -91 3 -110 15
-110 12 0 15 19 15 110 l0 110 40 0 c29 0 40 4 40 15 0 12 -18 15 -100 15 -82
0 -100 -3 -100 -15z"/>
<path d="M17110 20786 c0 -104 3 -126 15 -126 11 0 15 20 17 98 l3 97 35 -95
c46 -125 58 -127 99 -13 47 131 51 132 51 16 0 -85 3 -103 15 -103 13 0 15 21
15 125 l0 125 -24 0 c-21 0 -28 -10 -52 -72 -15 -40 -32 -86 -39 -103 l-12
-30 -12 25 c-6 14 -23 59 -39 100 -22 59 -33 76 -50 78 -22 3 -22 2 -22 -122z"/>
<path d="M7003 19420 c-143 -30 -233 -142 -233 -290 l0 -60 -55 0 -55 0 0 -45
0 -45 55 0 55 0 0 -315 0 -315 60 0 60 0 0 315 0 315 150 0 150 0 0 -315 0
-315 60 0 60 0 0 360 0 360 -210 0 -210 0 0 43 c0 94 35 164 99 197 34 18 149
15 195 -4 21 -9 40 -16 41 -16 2 0 10 19 20 42 16 40 16 43 -1 55 -43 31 -169
48 -241 33z"/>
<path d="M3416 19338 c-5 -24 -67 -926 -66 -965 0 -21 5 -23 58 -23 l58 0 17
293 c10 160 20 359 24 442 4 85 10 141 14 130 4 -11 26 -83 48 -160 23 -77 84
-264 135 -415 l94 -275 48 -3 49 -3 103 283 c56 156 126 353 154 438 l53 155
7 -170 c7 -183 24 -499 34 -632 l6 -83 59 0 c55 0 59 2 59 23 0 13 -13 236
-30 497 -16 261 -30 478 -30 482 0 5 -37 8 -81 6 l-82 -3 -88 -240 c-49 -132
-112 -312 -140 -400 -28 -88 -54 -167 -56 -175 -4 -11 -8 -8 -13 10 -5 14 -27
86 -50 160 -23 74 -83 251 -132 393 l-91 257 -78 0 c-73 0 -79 -1 -83 -22z"/>
<path d="M9110 19008 c0 -376 4 -408 51 -503 28 -56 85 -110 148 -139 67 -31
254 -30 323 2 63 28 128 90 157 147 47 95 51 128 51 498 l0 347 -59 0 -59 0
-4 -357 c-4 -344 -5 -360 -26 -415 -39 -98 -115 -148 -225 -148 -95 0 -171 54
-209 149 -21 53 -22 73 -26 414 l-4 357 -59 0 -59 0 0 -352z"/>
<path d="M10784 19337 c-38 -33 -37 -81 1 -115 75 -64 170 44 100 113 -30 31
-66 32 -101 2z"/>
<path d="M13379 19331 c-16 -16 -29 -36 -29 -45 0 -30 23 -65 50 -76 81 -34
148 63 85 125 -33 33 -70 32 -106 -4z"/>
<path d="M13748 19261 l-58 -15 0 -88 0 -88 -55 0 -55 0 0 -45 0 -45 55 0 55
0 0 -233 c0 -259 9 -313 57 -359 38 -36 73 -48 141 -48 94 0 102 5 102 59 l0
46 -45 -3 c-25 -2 -59 1 -74 8 -50 20 -55 44 -59 298 l-4 232 96 0 96 0 0 45
0 45 -95 0 -94 0 -3 103 -3 103 -57 -15z"/>
<path d="M4729 19077 c-137 -39 -220 -138 -249 -297 -32 -175 40 -339 178
-407 54 -27 64 -28 187 -27 91 1 142 5 170 16 38 15 40 18 38 53 -2 21 -5 40
-7 42 -2 2 -41 -3 -87 -13 -163 -33 -279 5 -331 107 -15 30 -31 73 -34 97 l-7
42 256 0 256 0 6 33 c15 81 -33 223 -97 287 -64 64 -185 93 -279 67z m138 -92
c21 -9 46 -23 57 -33 28 -25 56 -91 56 -134 l0 -38 -195 0 -195 0 6 28 c21 86
63 142 129 173 49 23 94 24 142 4z"/>
<path d="M5505 19076 c-65 -21 -101 -43 -138 -87 l-36 -41 -3 58 -3 59 -59 3
-59 3 7 -32 c3 -17 6 -179 6 -360 l0 -329 65 0 65 0 0 248 c0 278 2 288 74
346 30 25 48 31 99 34 52 3 67 0 97 -20 19 -13 45 -43 58 -68 21 -42 22 -55
22 -292 l0 -248 66 0 65 0 -3 268 c-3 256 -4 269 -27 319 -30 68 -86 118 -152
137 -62 19 -90 19 -144 2z"/>
<path d="M8290 19080 c-25 -4 -67 -17 -95 -27 -47 -18 -50 -21 -48 -52 2 -49
12 -53 71 -31 71 27 185 27 229 0 37 -22 60 -61 69 -117 l6 -39 -104 -11
c-134 -14 -210 -43 -269 -102 -105 -104 -85 -272 40 -338 88 -46 234 -22 300
51 14 14 28 26 32 26 4 0 10 -20 13 -45 l7 -45 53 0 53 0 -4 178 c-7 367 -8
373 -35 427 -14 28 -34 58 -45 67 -54 49 -179 76 -273 58z m230 -434 c0 -41
-5 -87 -11 -103 -40 -107 -202 -151 -271 -74 -52 58 -33 172 35 208 56 29 110
42 180 42 l67 1 0 -74z"/>
<path d="M10297 19080 c-21 -6 -50 -16 -65 -24 -32 -16 -102 -84 -103 -100 -2
-23 -17 41 -18 77 l-1 37 -55 0 -55 0 0 -360 0 -360 65 0 65 0 0 239 0 239 28
53 c67 128 242 136 306 14 19 -37 21 -60 24 -292 l4 -253 65 0 65 0 -5 258
c-4 272 -9 299 -55 372 -50 79 -169 123 -265 100z"/>
<path d="M11923 19080 c-97 -20 -182 -93 -230 -195 -26 -55 -28 -70 -28 -180
0 -103 3 -127 22 -168 58 -126 153 -187 300 -195 89 -5 202 10 239 31 18 11
19 17 12 54 l-9 42 -42 -15 c-111 -39 -259 -24 -328 33 -40 34 -79 116 -79
166 l0 37 256 0 257 0 -5 84 c-12 184 -110 296 -269 310 -30 3 -73 1 -96 -4z
m163 -111 c41 -25 72 -81 81 -144 l6 -45 -197 0 -196 0 0 23 c0 32 43 118 73
145 59 55 164 64 233 21z"/>
<path d="M12670 19078 c-50 -14 -95 -52 -127 -106 l-28 -47 -3 73 -3 72 -54 0
-55 0 0 -360 0 -360 65 0 65 0 0 224 c0 140 4 236 11 257 27 80 102 138 177
139 l32 0 0 60 c0 67 -5 70 -80 48z"/>
<path d="M13000 19081 c-112 -24 -181 -100 -182 -200 0 -91 42 -139 183 -204
108 -50 139 -81 139 -137 0 -75 -66 -117 -170 -107 -32 3 -78 14 -103 25 l-45
20 -13 -45 c-14 -53 -12 -55 69 -79 80 -24 203 -16 266 16 68 34 108 86 114
149 12 124 -24 171 -186 248 -97 45 -115 57 -127 85 -18 45 -9 83 28 114 28
24 37 26 101 22 39 -2 85 -11 102 -19 l32 -16 11 37 c6 21 11 42 11 48 0 29
-159 59 -230 43z"/>
<path d="M5980 18823 c0 -288 8 -336 72 -407 52 -60 107 -80 197 -74 80 6 142
36 189 94 l30 36 7 -61 7 -61 56 0 55 0 -6 107 c-4 58 -7 220 -7 360 l0 253
-60 0 -60 0 0 -227 c0 -126 -5 -245 -10 -265 -37 -131 -211 -182 -296 -87 -41
46 -47 84 -52 337 l-4 242 -59 0 -59 0 0 -247z"/>
<path d="M7409 19023 c10 -27 71 -178 135 -338 64 -159 116 -301 116 -315 0
-63 -106 -189 -191 -227 -22 -9 -39 -20 -39 -23 0 -4 7 -28 16 -54 19 -54 25
-54 113 -3 124 74 195 199 375 672 63 165 118 308 121 318 7 16 2 18 -61 15
l-68 -3 -92 -278 c-51 -153 -94 -281 -97 -283 -3 -3 -13 19 -22 48 -10 29 -56
158 -103 286 l-85 232 -68 0 -69 0 19 -47z"/>
<path d="M10770 18710 l0 -360 65 0 65 0 0 360 0 360 -65 0 -65 0 0 -360z"/>
<path d="M10980 19067 c0 -3 52 -141 116 -308 64 -167 125 -328 136 -357 l20
-53 60 3 61 3 133 340 c74 187 137 348 140 357 5 16 -2 18 -59 18 l-64 0 -97
-282 c-54 -156 -100 -290 -103 -298 -7 -19 0 -36 -115 300 l-95 275 -67 3
c-36 2 -66 1 -66 -1z"/>
<path d="M13370 18710 l0 -360 65 0 65 0 0 360 0 360 -65 0 -65 0 0 -360z"/>
<path d="M14050 19063 c0 -4 62 -162 137 -351 l137 -343 -28 -54 c-35 -68
-103 -137 -164 -167 l-47 -24 13 -49 c8 -28 16 -52 18 -54 2 -2 33 10 68 28
94 46 163 126 231 264 46 95 295 726 295 749 0 5 -29 8 -64 8 l-64 0 -94 -285
c-51 -156 -96 -285 -99 -285 -4 0 -14 26 -23 58 -9 31 -54 158 -100 282 l-84
225 -66 3 c-36 2 -66 -1 -66 -5z"/>
</g>
</svg>
